<svg xmlns="http://www.w3.org/2000/svg" width="1600" height="1200" viewBox="0 0 1600 1200" role="img" aria-label="Grain-Free 96 percent Chicken Recipe product image"><defs><linearGradient id="bg" x1="0" y1="0" x2="1" y2="1"><stop stop-color="#F8F4EA"/><stop offset="1" stop-color="#E3ECDD"/></linearGradient><style>.label{font:700 34px Arial;letter-spacing:4px;fill:#B86A2A}.title{font:700 72px Georgia;fill:#282D26}.sub{font:34px Arial;fill:#50564C}.mini{font:700 30px Arial;fill:#6E7A4A}</style></defs><rect width="1600" height="1200" fill="url(#bg)"/><circle cx="1260" cy="270" r="300" fill="#5F7F68" opacity=".16"/><circle cx="1290" cy="860" r="330" fill="#C98A3D" opacity=".12"/><rect x="110" y="120" width="860" height="700" rx="50" fill="#fff" opacity=".94"/><text x="165" y="210" class="label">PRODUCT</text><text x="165" y="315" class="title">Grain-Free 96%</text><text x="165" y="400" class="title">Chicken Recipe</text><text x="165" y="485" class="sub">Canned • Chicken formula</text><line x1="165" y1="700" x2="900" y2="700" stroke="#C98A3D" stroke-width="8"/><text x="165" y="755" class="mini">chooseyourpetfood.com</text><g transform="translate(1090 260)"><rect x="20" y="120" width="310" height="455" rx="54" fill="#fff" stroke="#6E7A4A" stroke-width="14"/><rect x="55" y="165" width="240" height="108" rx="24" fill="#C98A3D"/><text x="95" y="235" font-family="Arial" font-size="42" font-weight="700" fill="#fff">96%</text><circle cx="175" cy="395" r="95" fill="#B86A2A" opacity=".78"/><path d="M130 398 C150 350 215 350 235 398 C200 435 165 435 130 398Z" fill="#F8F4EA"/></g></svg>