<svg xmlns="http://www.w3.org/2000/svg" width="1600" height="1200" viewBox="0 0 1600 1200" role="img" aria-label="High Protein Grain Free Turkey and Lentil product image"><defs><linearGradient id="bg" x1="0" y1="0" x2="1" y2="1"><stop stop-color="#F8F4EA"/><stop offset="1" stop-color="#E3ECDD"/></linearGradient><style>.label{font:700 34px Arial;letter-spacing:4px;fill:#B86A2A}.title{font:700 72px Georgia;fill:#282D26}.sub{font:34px Arial;fill:#50564C}.mini{font:700 30px Arial;fill:#6E7A4A}</style></defs><rect width="1600" height="1200" fill="url(#bg)"/><circle cx="1260" cy="270" r="300" fill="#5F7F68" opacity=".16"/><circle cx="1290" cy="860" r="330" fill="#C98A3D" opacity=".12"/><rect x="110" y="120" width="860" height="700" rx="50" fill="#fff" opacity=".94"/><text x="165" y="210" class="label">PRODUCT</text><text x="165" y="315" class="title">High-Protein</text><text x="165" y="400" class="title">Turkey &amp; Lentil</text><text x="165" y="485" class="sub">Grain-free • Turkey recipe</text><line x1="165" y1="700" x2="900" y2="700" stroke="#C98A3D" stroke-width="8"/><text x="165" y="755" class="mini">chooseyourpetfood.com</text><g transform="translate(1080 260)"><rect x="0" y="80" width="330" height="520" rx="46" fill="#fff" stroke="#6E7A4A" stroke-width="14"/><rect x="38" y="130" width="254" height="120" rx="24" fill="#5F7F68"/><text x="68" y="205" font-family="Arial" font-size="40" font-weight="700" fill="#fff">PROTEIN</text><circle cx="165" cy="382" r="96" fill="#C98A3D" opacity=".88"/><g fill="#F8F4EA"><circle cx="130" cy="370" r="18"/><circle cx="175" cy="348" r="18"/><circle cx="202" cy="395" r="18"/><circle cx="150" cy="420" r="18"/></g></g></svg>