<svg xmlns="http://www.w3.org/2000/svg" width="1600" height="900" viewBox="0 0 1600 900" role="img" aria-label="Grain-Free Diets Separating Science from Fear article image"><defs><linearGradient id="bg" x1="0" y1="0" x2="1" y2="1"><stop offset="0" stop-color="#F8F4EA"/><stop offset="1" stop-color="#E3ECDD"/></linearGradient><filter id="shadow"><feDropShadow dx="0" dy="18" stdDeviation="18" flood-color="#282D26" flood-opacity="0.18"/></filter><style>.label{font-family:Arial,sans-serif;font-weight:700;letter-spacing:3px;fill:#B86A2A}.title{font-family:Georgia,serif;font-weight:700;fill:#282D26}.sub{font-family:Arial,sans-serif;fill:#50564C}.brand{font-family:Arial,sans-serif;fill:#6E7A4A}</style></defs><rect width="1600" height="900" fill="url(#bg)"/><circle cx="1245" cy="220" r="245" fill="#5F7F68" opacity=".14"/><circle cx="1450" cy="620" r="240" fill="#C98A3D" opacity=".12"/><circle cx="1030" cy="640" r="220" fill="#B86A2A" opacity=".08"/><rect x="90" y="90" width="790" height="535" rx="38" fill="#fff" opacity=".93" filter="url(#shadow)"/><text x="132" y="158" class="label" font-size="28">NUTRITION</text><text x="132" y="238" class="title" font-size="58">Grain-Free Diets</text><text x="132" y="306" class="title" font-size="58">Science vs. Fear</text><text x="132" y="386" class="sub" font-size="31">Separating evidence from</text><text x="132" y="428" class="sub" font-size="31">marketing and worry.</text><line x1="132" y1="545" x2="825" y2="545" stroke="#C98A3D" stroke-width="5"/><text x="132" y="585" class="brand" font-size="24">chooseyourpetfood.com</text><g transform="translate(995 185)"><rect x="30" y="130" width="470" height="420" rx="45" fill="#fff" opacity=".9" stroke="#6E7A4A" stroke-width="10"/><path d="M120 415 C170 270 310 245 410 335" fill="none" stroke="#C98A3D" stroke-width="16" stroke-linecap="round"/><circle cx="180" cy="380" r="52" fill="#5F7F68" opacity=".88"/><circle cx="285" cy="315" r="52" fill="#C98A3D" opacity=".88"/><circle cx="390" cy="350" r="52" fill="#B86A2A" opacity=".82"/><text x="100" y="230" font-family="Arial" font-size="42" font-weight="700" fill="#282D26">EVIDENCE</text><text x="100" y="505" font-family="Arial" font-size="32" font-weight="700" fill="#6E7A4A">balanced view</text></g></svg>