<svg xmlns="http://www.w3.org/2000/svg" width="1600" height="900" viewBox="0 0 1600 900" role="img" aria-label="Healthy Weight Guide article image">
  <defs>
    <linearGradient id="bg" x1="0" y1="0" x2="1" y2="1"><stop offset="0" stop-color="#F8F4EA"/><stop offset="1" stop-color="#E3ECDD"/></linearGradient>
    <filter id="shadow"><feDropShadow dx="0" dy="18" stdDeviation="18" flood-color="#282D26" flood-opacity="0.18"/></filter>
    <style>.label{font-family:Arial,sans-serif;font-weight:700;letter-spacing:3px;fill:#B86A2A}.title{font-family:Georgia,serif;font-weight:700;fill:#282D26}.sub{font-family:Arial,sans-serif;fill:#50564C}.brand{font-family:Arial,sans-serif;fill:#6E7A4A}</style>
  </defs>
  <rect width="1600" height="900" fill="url(#bg)"/>
  <circle cx="1250" cy="220" r="240" fill="#5F7F68" opacity=".14"/><circle cx="1460" cy="625" r="235" fill="#C98A3D" opacity=".12"/><circle cx="1045" cy="655" r="235" fill="#B86A2A" opacity=".08"/>
  <rect x="90" y="90" width="760" height="535" rx="38" fill="#fff" opacity=".93" filter="url(#shadow)"/>
  <text x="132" y="158" class="label" font-size="28">HEALTH</text>
  <text x="132" y="238" class="title" font-size="58">Healthy Weight</text><text x="132" y="306" class="title" font-size="58">Guide</text>
  <text x="132" y="386" class="sub" font-size="31">Preventing obesity before</text><text x="132" y="428" class="sub" font-size="31">it starts.</text>
  <line x1="132" y1="545" x2="800" y2="545" stroke="#C98A3D" stroke-width="5"/><text x="132" y="585" class="brand" font-size="24">chooseyourpetfood.com</text>
  <g transform="translate(975 210)">
    <rect x="40" y="360" width="500" height="48" rx="24" fill="#282D26" opacity=".85"/>
    <path d="M120 160 C120 70 185 0 290 0 C395 0 460 70 460 160 L420 360 L160 360 Z" fill="#fff" opacity=".92" stroke="#6E7A4A" stroke-width="10"/>
    <path d="M235 145 A65 65 0 0 1 345 145" fill="none" stroke="#C98A3D" stroke-width="12" stroke-linecap="round"/>
    <line x1="290" y1="145" x2="335" y2="102" stroke="#B86A2A" stroke-width="10" stroke-linecap="round"/>
    <circle cx="290" cy="145" r="12" fill="#B86A2A"/>
    <text x="260" y="265" font-family="Arial,sans-serif" font-size="92" font-weight="700" fill="#5F7F68">85</text>
  </g>
  <rect x="1010" y="690" width="430" height="70" rx="35" fill="#fff" opacity=".82"/>
  <text x="1065" y="735" font-family="Arial,sans-serif" font-size="30" font-weight="700" fill="#282D26">portion • activity • routine</text>
</svg>
