<svg xmlns="http://www.w3.org/2000/svg" width="1600" height="900" viewBox="0 0 1600 900" role="img" aria-label="Inflammation and Longevity article image">
  <defs><linearGradient id="bg" x1="0" y1="0" x2="1" y2="1"><stop offset="0" stop-color="#F8F4EA"/><stop offset="1" stop-color="#E5EEDC"/></linearGradient><filter id="shadow"><feDropShadow dx="0" dy="18" stdDeviation="18" flood-color="#282D26" flood-opacity="0.18"/></filter><style>.label{font-family:Arial,sans-serif;font-weight:700;letter-spacing:3px;fill:#B86A2A}.title{font-family:Georgia,serif;font-weight:700;fill:#282D26}.sub{font-family:Arial,sans-serif;fill:#50564C}.brand{font-family:Arial,sans-serif;fill:#6E7A4A}</style></defs>
  <rect width="1600" height="900" fill="url(#bg)"/><circle cx="1215" cy="190" r="230" fill="#C98A3D" opacity=".14"/><circle cx="1440" cy="610" r="240" fill="#5F7F68" opacity=".14"/><circle cx="1110" cy="640" r="250" fill="#B86A2A" opacity=".09"/>
  <rect x="90" y="90" width="750" height="535" rx="38" fill="#fff" opacity=".93" filter="url(#shadow)"/>
  <text x="132" y="158" class="label" font-size="28">HEALTH</text>
  <text x="132" y="250" class="title" font-size="62">Inflammation &amp;</text><text x="132" y="322" class="title" font-size="62">Longevity</text>
  <text x="132" y="405" class="sub" font-size="31">What pet owners should know</text><text x="132" y="447" class="sub" font-size="31">about chronic inflammation.</text>
  <line x1="132" y1="545" x2="790" y2="545" stroke="#C98A3D" stroke-width="5"/><text x="132" y="585" class="brand" font-size="24">chooseyourpetfood.com</text>
  <line x1="910" y1="555" x2="1450" y2="555" stroke="#6E7A4A" stroke-width="14" stroke-linecap="round"/>
  <g stroke="#fff" stroke-width="6"><circle cx="970" cy="555" r="82" fill="#B86A2A"/><circle cx="1165" cy="555" r="82" fill="#5F7F68"/><circle cx="1360" cy="555" r="82" fill="#6E7A4A"/></g>
  <g stroke="#fff" stroke-width="6" stroke-linecap="round"><line x1="970" y1="505" x2="970" y2="605"/><line x1="920" y1="555" x2="1020" y2="555"/><line x1="935" y1="520" x2="1005" y2="590"/><line x1="1005" y1="520" x2="935" y2="590"/></g>
  <path d="M1130 555 C1160 515 1210 540 1195 585 C1185 615 1135 615 1130 555Z" fill="none" stroke="#fff" stroke-width="9"/>
  <path d="M1328 568 C1346 525 1390 525 1410 568 C1380 612 1350 612 1328 568Z" fill="none" stroke="#fff" stroke-width="9"/>
  <text x="900" y="670" font-family="Arial,sans-serif" font-size="27" font-weight="700" fill="#282D26">Inflammation</text><text x="1105" y="670" font-family="Arial,sans-serif" font-size="27" font-weight="700" fill="#282D26">Recovery</text><text x="1300" y="670" font-family="Arial,sans-serif" font-size="27" font-weight="700" fill="#282D26">Longevity</text>
</svg>