<svg xmlns="http://www.w3.org/2000/svg" width="1600" height="900" viewBox="0 0 1600 900" role="img" aria-label="Senior Pet Longevity Guide article image">
  <defs><linearGradient id="bg" x1="0" y1="0" x2="1" y2="1"><stop offset="0" stop-color="#F8F4EA"/><stop offset="1" stop-color="#E4EFDF"/></linearGradient><filter id="shadow"><feDropShadow dx="0" dy="18" stdDeviation="18" flood-color="#282D26" flood-opacity="0.18"/></filter><style>.label{font-family:Arial,sans-serif;font-weight:700;letter-spacing:3px;fill:#B86A2A}.title{font-family:Georgia,serif;font-weight:700;fill:#282D26}.sub{font-family:Arial,sans-serif;fill:#50564C}.brand{font-family:Arial,sans-serif;fill:#6E7A4A}</style></defs>
  <rect width="1600" height="900" fill="url(#bg)"/><circle cx="1320" cy="215" r="250" fill="#C98A3D" opacity=".16"/><circle cx="1110" cy="650" r="255" fill="#5F7F68" opacity=".14"/><circle cx="1485" cy="610" r="210" fill="#B86A2A" opacity=".08"/>
  <rect x="90" y="90" width="750" height="535" rx="38" fill="#fff" opacity=".93" filter="url(#shadow)"/>
  <text x="132" y="158" class="label" font-size="28">HEALTH</text>
  <text x="132" y="238" class="title" font-size="58">Senior Pet</text><text x="132" y="306" class="title" font-size="58">Longevity Guide</text>
  <text x="132" y="386" class="sub" font-size="31">Maximizing quality of life</text><text x="132" y="428" class="sub" font-size="31">in the golden years.</text>
  <line x1="132" y1="545" x2="790" y2="545" stroke="#C98A3D" stroke-width="5"/><text x="132" y="585" class="brand" font-size="24">chooseyourpetfood.com</text>
  <circle cx="1290" cy="235" r="125" fill="#C98A3D" opacity=".90"/><g fill="#fff" opacity=".85"><circle cx="1290" cy="142" r="10"/><circle cx="1290" cy="328" r="10"/><circle cx="1197" cy="235" r="10"/><circle cx="1383" cy="235" r="10"/></g>
  <path d="M930 735 C1065 545 1255 430 1495 385" fill="none" stroke="#6E7A4A" stroke-width="24" stroke-linecap="round"/>
  <g fill="#B86A2A" opacity=".85"><ellipse cx="995" cy="665" rx="22" ry="29"/><circle cx="966" cy="624" r="14"/><circle cx="987" cy="604" r="14"/><circle cx="1014" cy="604" r="14"/><circle cx="1035" cy="624" r="14"/><ellipse cx="1110" cy="585" rx="24" ry="31"/><circle cx="1078" cy="542" r="15"/><circle cx="1100" cy="520" r="15"/><circle cx="1129" cy="520" r="15"/><circle cx="1152" cy="542" r="15"/></g>
  <g fill="#5F7F68" opacity=".88"><ellipse cx="1225" cy="510" rx="26" ry="33"/><circle cx="1190" cy="465" r="16"/><circle cx="1214" cy="441" r="16"/><circle cx="1246" cy="441" r="16"/><circle cx="1271" cy="465" r="16"/><ellipse cx="1355" cy="445" rx="28" ry="35"/><circle cx="1318" cy="398" r="17"/><circle cx="1344" cy="372" r="17"/><circle cx="1378" cy="372" r="17"/><circle cx="1405" cy="398" r="17"/></g>
  <rect x="980" y="680" width="500" height="72" rx="36" fill="#fff" opacity=".82"/><text x="1028" y="726" font-family="Arial,sans-serif" font-size="30" font-weight="700" fill="#282D26">comfort • prevention • dignity</text>
</svg>